Land_normalized_Motion_pl07
version=1
nRows=18
nColumns=43
inDegrees=yes
endheader
time		pelvis_tilt		pelvis_list		pelvis_rotation		pelvis_tx		pelvis_ty		pelvis_tz		hip_flexion_r		hip_adduction_r		hip_rotation_r		knee_angle_r		ankle_angle_r		subtalar_angle_r		mtp_angle_r		hip_flexion_l		hip_adduction_l		hip_rotation_l		knee_angle_l		ankle_angle_l		subtalar_angle_l		mtp_angle_l		lumbar_extension		lumbar_bending		lumbar_rotation		neck_flexion		neck_lateral_bending		neck_rotation		arm_flex_r		arm_add_r		arm_rot_r		elbow_flex_r		pro_sup_r		wrist_flex_r		wrist_dev_r		hand_finger_flex_r		arm_flex_l		arm_add_l		arm_rot_l		elbow_flex_l		pro_sup_l		wrist_flex_l		wrist_dev_l		hand_finger_flex_l		
0.775000		-0.097835		8.529165		89.286298		-0.018362		0.463221		0.452170		90.780604		-1.458595		5.395184		-137.891836		17.230116		0.399214		18.142891		87.575220		-3.606700		4.931371		-137.852391		19.177871		15.689758		34.816959		-60.972097		-0.756286		4.122941		25.218904		-1.442735		-4.638558		65.806531		-32.451389		11.010906		78.476368		101.836790		0.700656		-19.908759		18.584731		52.381103		-22.144489		10.085808		73.391700		122.955347		-37.953134		-13.251299		0.479075		
0.777955		-0.045950		8.566286		89.276192		-0.018532		0.459786		0.451002		91.123670		-1.533768		5.470989		-138.405971		17.495590		0.784445		18.210539		87.820231		-3.648515		4.833947		-138.433230		19.754763		15.248741		34.129226		-61.382161		-0.670506		4.078459		25.680682		-1.736319		-4.638486		67.702538		-32.356911		12.030137		78.449741		101.526027		0.687926		-19.871902		18.814116		53.752791		-22.450195		10.596747		73.931310		121.209632		-38.414550		-13.288249		0.817094		
0.780909		0.013946		8.485695		89.305349		-0.018622		0.456457		0.449923		91.555148		-1.629770		5.472107		-138.853746		17.694540		0.898632		18.244117		88.214348		-3.658196		4.826203		-138.946515		20.099411		15.113223		33.947887		-61.683599		-0.649829		4.103198		26.100385		-1.578799		-4.735176		69.293273		-32.336351		12.637547		78.588463		101.620441		0.829081		-19.815805		18.942633		55.204811		-22.616010		10.984566		74.320519		120.849682		-38.362221		-13.470171		0.988498		
0.783864		0.069734		8.468420		89.324969		-0.018762		0.453339		0.448821		91.893763		-1.720051		5.492721		-139.303944		17.917099		1.062829		18.278770		88.531860		-3.684578		4.797675		-139.463281		20.403528		14.949110		33.763190		-62.036262		-0.612285		4.125301		26.528249		-1.566390		-4.840756		70.843089		-32.193735		13.159523		78.642738		101.672497		0.919336		-19.763675		19.039225		56.573007		-22.696383		11.276141		74.692467		120.355399		-38.376706		-13.536860		1.126553		
0.786818		0.122407		8.427609		89.357588		-0.018895		0.450414		0.447792		92.206410		-1.792158		5.501248		-139.708324		18.146993		1.183637		18.311639		88.862670		-3.687541		4.775784		-139.928012		20.633349		14.832531		33.676692		-62.377114		-0.581557		4.121199		26.967205		-1.448626		-4.969255		72.321578		-31.995101		13.589317		78.690351		101.784916		1.019604		-19.693837		19.097170		57.957327		-22.798485		11.556104		74.988010		120.128778		-38.275791		-13.621425		1.221860		
0.789773		0.154841		8.545088		89.350937		-0.019205		0.447794		0.446691		92.281656		-1.867621		5.680952		-140.115425		18.707163		1.950094		18.346776		88.970464		-3.722529		4.638082		-140.403712		20.995144		14.402072		32.996817		-62.906136		-0.473518		3.961658		27.339511		-1.749841		-4.978302		74.089390		-31.772505		14.558952		78.697544		101.798405		1.005549		-19.700413		19.274013		59.132124		-23.375175		12.066742		75.634491		118.316856		-38.733099		-13.688343		1.527709		
0.792727		0.177565		8.483459		89.395535		-0.019361		0.445157		0.445670		92.546743		-1.942060		5.741039		-140.476736		18.942291		2.015129		18.364361		89.278898		-3.718616		4.615179		-140.818236		21.195935		14.345185		32.850819		-63.221271		-0.475500		3.920039		27.686238		-1.536415		-5.066493		75.364597		-31.533032		14.813549		78.756244		101.915074		1.034368		-19.647255		19.330459		60.428056		-23.528256		12.367786		75.898570		118.174043		-38.623321		-13.941833		1.677568		
0.795682		0.185537		8.466351		89.432165		-0.019550		0.442777		0.444656		92.716736		-1.995111		5.795062		-140.810654		19.243433		2.058163		18.390596		89.464579		-3.723713		4.564123		-141.187523		21.468210		14.309243		32.761552		-63.596592		-0.477353		3.863077		28.046694		-1.370470		-5.176405		76.613594		-31.338145		15.086082		78.886419		102.113124		1.123071		-19.594636		19.398314		61.662742		-23.652789		12.572439		76.137904		118.173596		-38.486904		-14.177158		1.798192		
0.798636		0.186148		8.472035		89.464471		-0.019753		0.440583		0.443656		92.829145		-2.058725		5.861718		-141.125502		19.589540		2.141870		18.417764		89.577660		-3.737664		4.508513		-141.527172		21.801084		14.285167		32.666467		-63.994484		-0.477040		3.783495		28.371408		-1.251081		-5.270124		77.813208		-31.110120		15.324483		79.014027		102.352994		1.211646		-19.541640		19.470397		62.825352		-23.776079		12.721647		76.367625		118.173657		-38.359644		-14.399899		1.921883		
0.801591		0.172814		8.472206		89.499711		-0.019918		0.438555		0.442692		92.924134		-2.128527		5.918883		-141.414997		19.938623		2.239605		18.441213		89.654847		-3.754027		4.457422		-141.828635		22.160519		14.302108		32.576320		-64.384156		-0.480999		3.679858		28.641531		-1.140111		-5.337718		78.920378		-30.827680		15.479929		79.136256		102.609253		1.284678		-19.495125		19.537769		63.922130		-23.874485		12.799870		76.567656		118.200760		-38.231114		-14.608595		2.050115		
0.804545		0.155712		8.466403		89.534764		-0.020067		0.436674		0.441767		93.012289		-2.215249		5.968006		-141.687593		20.289247		2.328873		18.460325		89.715037		-3.773165		4.418911		-142.101448		22.541994		14.378825		32.498167		-64.762077		-0.492888		3.547743		28.872424		-1.018465		-5.383992		79.930596		-30.502801		15.557780		79.260292		102.879209		1.349123		-19.457750		19.603562		64.955436		-23.954621		12.815718		76.739142		118.273667		-38.089487		-14.813394		2.192171		
0.807500		0.145081		8.414843		89.546786		-0.020188		0.434741		0.440737		93.181273		-2.290891		6.002172		-141.973134		20.440932		2.344756		18.471443		89.877994		-3.826485		4.437041		-142.404703		22.706522		14.415813		32.481117		-65.058577		-0.516193		3.480944		28.808309		-0.961094		-5.397140		80.683691		-30.221506		15.446204		79.516197		102.947924		1.333523		-19.494854		19.609398		65.785104		-23.897703		12.690564		76.960528		118.310077		-38.055290		-14.909814		2.234863		
0.810455		0.076833		8.404917		89.615976		-0.020248		0.433343		0.440030		93.200170		-2.449084		6.011140		-142.158530		20.937432		2.378429		18.495611		89.871519		-3.830764		4.420315		-142.563554		23.241348		14.690462		32.456494		-65.456088		-0.545180		3.234018		29.243520		-0.726613		-5.456186		81.635313		-29.743369		15.454151		79.536282		103.300283		1.417812		-19.415133		19.691385		66.818782		-23.988465		12.671465		76.972468		118.540017		-37.778311		-15.147803		2.471108		
0.813409		0.011969		8.434060		89.649366		-0.020345		0.431855		0.439086		93.209789		-2.603200		6.071279		-142.412344		21.403059		2.420905		18.498779		89.881088		-3.863563		4.476938		-142.816280		23.735912		15.083384		32.423086		-65.850054		-0.592997		3.033407		29.368452		-0.564348		-5.455873		82.329436		-29.350527		15.291789		79.758717		103.667938		1.514486		-19.416193		19.799662		67.556147		-24.062218		12.490986		77.203780		118.798118		-37.570187		-15.434085		2.749816		
0.816364		-0.025443		8.355222		89.643372		-0.020382		0.430462		0.438219		93.366593		-2.689093		6.052896		-142.614640		21.470923		2.417993		18.502984		90.071201		-3.931346		4.534039		-143.027320		23.802267		15.120421		32.427073		-66.113751		-0.646719		2.948820		29.227731		-0.537669		-5.460731		82.883850		-29.056884		15.140112		80.052999		103.660999		1.479514		-19.479568		19.787474		68.192079		-23.918912		12.332218		77.368760		118.812579		-37.565701		-15.467497		2.766909		
0.819318		-0.084964		8.277556		89.689999		-0.020362		0.429367		0.437465		93.408127		-2.853336		5.994268		-142.765702		22.028489		2.472867		18.331866		90.133667		-3.980065		4.820474		-143.140714		24.369111		16.506243		32.395632		-66.426285		-0.706994		2.701557		29.453909		-0.225359		-5.418175		83.291688		-28.286783		14.325381		80.229357		104.436688		1.922503		-19.440528		20.100214		68.766960		-23.733159		11.617802		77.480243		119.447250		-36.979655		-15.838546		3.739526		
0.822273		-0.171479		8.200968		89.755519		-0.020447		0.428481		0.436757		93.449377		-3.062884		5.962860		-142.886251		22.379232		2.424231		18.249069		90.227694		-3.990713		4.909749		-143.218602		24.603137		17.051444		32.369720		-66.751227		-0.738486		2.489669		29.650338		-0.095490		-5.464165		83.721557		-27.752060		13.834549		80.464852		104.714607		2.075438		-19.492179		20.195896		69.363964		-23.580830		11.226338		77.543890		119.701354		-36.762001		-15.965035		4.187358		
0.825227		-0.262158		8.117092		89.789272		-0.020577		0.427703		0.436076		93.518055		-3.229076		5.936372		-143.003789		22.628932		2.325074		18.229304		90.345655		-4.017487		4.903050		-143.280300		24.697593		17.177979		32.362159		-67.065894		-0.801622		2.323544		29.755966		-0.001938		-5.546054		84.098348		-27.354630		13.456481		80.756508		104.645210		2.059101		-19.589054		20.166870		69.893449		-23.445209		11.003599		77.660626		119.718168		-36.771924		-15.993944		4.300492		
